<?xml version="1.0" standalone="no"?>
<!DOCTYPE svg PUBLIC "-//W3C//DTD SVG 20010904//EN"
 "http://www.w3.org/TR/2001/REC-SVG-20010904/DTD/svg10.dtd">
<svg version="1.0" xmlns="http://www.w3.org/2000/svg"
 width="2550.000000pt" height="2550.000000pt" viewBox="0 0 2550.000000 2550.000000"
 preserveAspectRatio="xMidYMid meet">
<metadata>
Created by potrace 1.11, written by Peter Selinger 2001-2013
</metadata>
<g transform="translate(0.000000,2550.000000) scale(0.100000,-0.100000)"
fill="#000000" stroke="none">
<path d="M12298 25455 c-2 -2 -57 -6 -123 -9 -66 -2 -130 -7 -142 -10 -13 -3
-23 0 -23 5 0 6 -7 6 -17 1 -10 -4 -51 -8 -90 -7 -40 0 -73 -2 -73 -5 0 -4
-27 -6 -60 -5 -33 0 -60 -3 -60 -6 0 -3 -12 -6 -27 -6 -42 0 -194 -13 -228
-18 -16 -3 -55 -7 -85 -10 -57 -5 -132 -13 -185 -21 -16 -2 -50 -6 -75 -9 -43
-4 -57 -6 -145 -19 -22 -3 -58 -8 -80 -12 -105 -15 -134 -19 -250 -40 -55 -9
-110 -17 -122 -18 -13 0 -23 -3 -23 -7 0 -4 -6 -6 -12 -6 -30 3 -138 -16 -138
-24 0 -4 -7 -6 -15 -3 -8 3 -20 2 -27 -2 -7 -4 -24 -9 -38 -10 -35 -3 -129
-21 -165 -32 -16 -5 -38 -8 -47 -6 -10 1 -18 -1 -18 -6 0 -5 -8 -7 -17 -5 -10
1 -22 -1 -28 -5 -5 -4 -26 -10 -45 -13 -52 -9 -78 -15 -182 -40 -32 -8 -60
-12 -63 -9 -3 3 -5 0 -5 -7 0 -7 -6 -11 -12 -8 -7 2 -23 0 -36 -4 -20 -8 -33
-11 -89 -23 -7 -1 -15 -5 -19 -8 -3 -4 -12 -4 -20 -1 -8 3 -14 -1 -14 -8 0 -7
-3 -10 -6 -7 -3 4 -20 2 -37 -3 -18 -6 -41 -12 -52 -14 -11 -3 -33 -8 -50 -12
-16 -4 -32 -7 -35 -8 -3 0 -10 -3 -16 -7 -6 -4 -30 -10 -52 -14 -23 -4 -42
-10 -42 -13 0 -4 -9 -7 -21 -8 -18 -2 -99 -25 -139 -40 -8 -3 -19 -7 -25 -7
-5 -1 -44 -12 -85 -26 -41 -13 -78 -23 -82 -22 -5 1 -8 -4 -8 -11 0 -8 -4 -7
-10 3 -5 8 -10 10 -10 4 0 -6 -28 -19 -62 -29 -35 -10 -67 -22 -73 -27 -5 -4
-19 -8 -32 -8 -13 0 -23 -5 -23 -12 0 -6 -3 -9 -6 -5 -5 5 -88 -20 -134 -40
-8 -3 -18 -7 -22 -8 -5 -2 -10 -4 -13 -5 -3 -1 -9 -4 -15 -5 -5 -1 -12 -4 -15
-5 -3 -1 -8 -3 -12 -4 -31 -6 -113 -42 -113 -49 0 -4 -4 -6 -10 -2 -5 3 -35
-5 -67 -18 -90 -37 -98 -40 -103 -41 -3 -1 -24 -8 -45 -18 -39 -16 -67 -26
-83 -29 -4 -1 -16 -8 -27 -15 -11 -8 -27 -14 -37 -14 -10 0 -18 -4 -18 -8 0
-5 -6 -9 -13 -9 -7 0 -39 -12 -71 -26 -32 -15 -64 -27 -71 -27 -7 0 -18 -7
-25 -15 -7 -9 -15 -13 -18 -11 -2 3 -14 0 -26 -6 -11 -7 -23 -13 -26 -13 -6
-1 -79 -33 -102 -46 -10 -5 -24 -9 -32 -9 -7 0 -19 -7 -26 -15 -6 -8 -15 -14
-18 -13 -7 2 -63 -23 -229 -103 -56 -27 -106 -49 -112 -49 -6 0 -11 -5 -11
-11 0 -5 -4 -7 -10 -4 -5 3 -10 1 -10 -4 0 -6 -9 -11 -20 -11 -11 0 -20 -4
-20 -10 0 -5 -8 -10 -19 -10 -10 0 -24 -7 -31 -15 -7 -9 -15 -14 -17 -11 -3 2
-32 -11 -65 -30 -33 -19 -63 -34 -68 -34 -4 0 -19 -9 -34 -21 -14 -11 -26 -17
-26 -14 0 4 -6 3 -12 -3 -7 -5 -44 -26 -83 -47 -155 -83 -200 -109 -206 -118
-3 -5 -10 -9 -15 -9 -17 -1 -54 -21 -54 -30 0 -4 -8 -8 -18 -8 -11 0 -32 -11
-47 -24 -16 -14 -32 -23 -37 -20 -4 3 -8 0 -8 -5 0 -6 -7 -11 -15 -11 -8 0
-15 -5 -15 -11 0 -5 -4 -8 -9 -4 -5 3 -13 0 -16 -5 -4 -6 -17 -16 -28 -21 -12
-5 -53 -29 -92 -54 -38 -24 -81 -50 -95 -57 -14 -7 -27 -15 -30 -18 -12 -13
-91 -60 -100 -60 -5 0 -10 -4 -10 -9 0 -5 -14 -14 -30 -21 -17 -7 -30 -17 -30
-23 0 -6 -3 -8 -6 -4 -4 3 -12 1 -20 -6 -33 -30 -42 -35 -48 -30 -3 4 -6 1 -6
-5 0 -7 -7 -12 -15 -12 -9 0 -18 -7 -21 -15 -4 -8 -10 -15 -16 -15 -10 0 -159
-100 -190 -128 -10 -8 -18 -12 -18 -8 0 4 -12 -5 -27 -19 -15 -14 -33 -25 -40
-25 -7 0 -13 -3 -13 -8 0 -4 -36 -31 -80 -61 -44 -29 -80 -57 -80 -62 0 -5 -6
-9 -13 -9 -7 0 -22 -8 -33 -18 -10 -9 -52 -41 -92 -70 -40 -29 -80 -59 -90
-66 -75 -61 -132 -105 -162 -126 -19 -14 -45 -35 -56 -47 -12 -13 -26 -23 -32
-23 -6 0 -12 -3 -14 -7 -1 -5 -25 -26 -53 -48 -51 -41 -89 -72 -109 -90 -6 -6
-36 -30 -66 -55 -87 -72 -101 -83 -135 -115 -18 -16 -55 -49 -81 -72 -27 -22
-69 -60 -94 -82 -25 -23 -66 -61 -92 -83 -122 -107 -507 -486 -500 -492 3 -4
0 -6 -6 -6 -6 0 -32 -23 -59 -51 -26 -29 -70 -75 -98 -104 -57 -60 -131 -140
-225 -245 -36 -40 -72 -80 -80 -89 -8 -9 -37 -44 -65 -76 -27 -33 -59 -70 -70
-81 -11 -12 -31 -36 -45 -54 -14 -18 -38 -45 -53 -61 -16 -16 -26 -29 -23 -29
3 0 -5 -10 -17 -23 -23 -24 -33 -36 -102 -122 -21 -28 -44 -53 -50 -57 -5 -4
-6 -8 -1 -8 5 0 -1 -8 -12 -19 -12 -10 -22 -23 -22 -30 0 -6 -3 -11 -8 -11 -4
0 -28 -28 -52 -62 -25 -34 -49 -66 -55 -72 -5 -6 -27 -34 -47 -61 -21 -28 -41
-54 -46 -60 -4 -5 -18 -26 -32 -45 -13 -19 -27 -37 -30 -40 -3 -3 -16 -22 -29
-42 -12 -21 -27 -38 -32 -38 -5 0 -9 -7 -9 -15 0 -8 -4 -15 -10 -15 -5 0 -10
-7 -10 -15 0 -8 -4 -15 -10 -15 -5 0 -10 -6 -10 -14 0 -8 -3 -16 -7 -18 -5 -1
-21 -23 -38 -48 -16 -25 -38 -54 -47 -64 -10 -11 -20 -28 -24 -38 -3 -10 -10
-18 -15 -18 -5 0 -9 -6 -9 -13 0 -7 -9 -23 -20 -35 -11 -12 -20 -26 -20 -32 0
-5 -4 -10 -10 -10 -5 0 -10 -7 -10 -15 0 -8 -5 -15 -12 -15 -6 0 -9 -3 -5 -6
3 -4 1 -12 -6 -20 -30 -33 -54 -72 -68 -106 -6 -16 -15 -25 -20 -22 -5 3 -9 0
-9 -6 0 -6 -20 -42 -45 -80 -25 -38 -45 -73 -45 -79 0 -5 -4 -11 -8 -13 -8 -3
-122 -189 -131 -213 -2 -5 -9 -17 -16 -25 -7 -8 -24 -35 -37 -60 -14 -25 -35
-62 -47 -82 -53 -94 -65 -116 -92 -165 -16 -29 -43 -79 -61 -110 -17 -32 -50
-96 -74 -143 -24 -47 -48 -90 -54 -97 -5 -7 -10 -16 -10 -21 0 -5 -18 -41 -39
-81 -22 -39 -37 -71 -35 -71 3 0 -5 -15 -18 -32 -13 -18 -21 -33 -19 -33 2 0
-14 -39 -37 -88 -23 -48 -42 -92 -42 -97 0 -6 -4 -10 -10 -10 -5 0 -10 -6 -10
-13 0 -8 -13 -41 -30 -75 -16 -34 -30 -67 -30 -72 0 -6 -4 -10 -8 -10 -5 0 -9
-7 -9 -15 0 -8 -7 -29 -16 -47 -23 -48 -71 -152 -72 -158 -3 -19 -41 -106 -48
-111 -5 -3 -8 -9 -7 -13 1 -7 -29 -90 -56 -151 -10 -22 -18 -43 -18 -47 -1 -3
-4 -9 -8 -13 -4 -4 -4 -13 -1 -21 3 -8 0 -14 -6 -14 -5 0 -15 -18 -21 -39 -6
-22 -17 -52 -25 -68 -8 -15 -15 -35 -15 -44 0 -9 -3 -19 -7 -23 -5 -4 -8 -11
-9 -14 -1 -7 -3 -13 -27 -77 -7 -16 -11 -33 -9 -37 1 -5 -2 -8 -6 -8 -5 0 -9
-6 -10 -12 -1 -19 -7 -40 -21 -73 -7 -16 -14 -34 -15 -40 -4 -18 -39 -120 -45
-130 -3 -5 -6 -14 -8 -20 -1 -5 -4 -20 -7 -32 -2 -12 -10 -32 -17 -45 -7 -13
-12 -25 -11 -28 1 -3 -14 -57 -34 -120 -19 -63 -44 -142 -54 -175 -10 -33 -30
-105 -45 -160 -15 -55 -30 -102 -34 -105 -3 -3 -7 -20 -9 -39 -1 -19 -7 -40
-12 -46 -5 -7 -7 -14 -5 -17 3 -3 1 -18 -6 -34 -6 -16 -12 -38 -14 -49 -5 -27
-13 -60 -15 -60 -1 0 -3 -11 -6 -25 -2 -14 -14 -61 -25 -105 -11 -44 -22 -91
-24 -105 -3 -14 -9 -45 -16 -70 -6 -25 -13 -54 -15 -65 -5 -26 -14 -67 -18
-80 -1 -5 -7 -32 -11 -60 -10 -58 -12 -64 -15 -67 -1 -2 -4 -14 -6 -28 -6 -43
-12 -74 -22 -119 -6 -25 -9 -49 -6 -53 3 -4 1 -8 -3 -8 -5 0 -9 -8 -9 -17 -1
-24 -12 -98 -23 -150 -5 -24 -6 -43 -3 -43 2 0 0 -6 -5 -12 -5 -7 -9 -28 -8
-45 1 -18 -1 -33 -4 -33 -4 0 -8 -15 -9 -33 -1 -18 -4 -43 -7 -56 -2 -13 -7
-48 -11 -79 -7 -60 -11 -87 -14 -87 -2 0 -4 -18 -5 -40 -2 -22 -4 -40 -5 -40
-2 0 -3 -10 -15 -130 -3 -38 -10 -81 -14 -95 -4 -14 -7 -46 -6 -72 0 -27 -3
-48 -6 -48 -3 0 -6 -19 -6 -42 0 -24 -3 -68 -7 -98 -4 -30 -9 -82 -11 -115 -2
-33 -7 -91 -10 -130 -3 -38 -8 -110 -10 -160 -2 -49 -4 -90 -5 -90 -8 0 -14
-333 -14 -705 0 -456 7 -700 19 -720 3 -5 0 -10 -7 -10 -8 0 -9 -3 -3 -8 6 -4
11 -29 12 -57 1 -63 11 -230 13 -230 1 0 4 -38 7 -85 2 -50 9 -88 16 -92 9 -6
9 -8 -1 -8 -7 0 -11 -4 -7 -10 7 -11 17 -112 19 -187 0 -29 4 -53 9 -53 4 0 7
-12 6 -27 0 -16 2 -40 4 -56 6 -32 19 -139 23 -182 1 -16 3 -30 4 -30 3 0 9
-39 14 -85 3 -25 8 -67 13 -95 5 -27 8 -59 8 -70 0 -11 3 -22 6 -25 4 -3 9
-30 13 -60 3 -30 9 -71 14 -90 4 -19 7 -42 7 -50 -1 -8 3 -21 8 -28 5 -6 6
-12 3 -12 -4 0 -2 -9 4 -20 8 -15 8 -20 -2 -20 -8 0 -9 -3 -3 -8 6 -4 11 -14
12 -22 1 -8 7 -42 14 -75 7 -33 12 -64 10 -69 -1 -4 4 -14 10 -22 9 -11 9 -14
-1 -14 -8 0 -9 -4 -3 -12 8 -11 30 -104 48 -203 2 -11 4 -20 5 -20 2 0 10 -34
14 -60 2 -11 4 -20 5 -20 3 0 11 -44 14 -75 1 -14 5 -27 9 -30 5 -4 14 -42 22
-90 1 -9 5 -20 9 -27 4 -6 4 -18 1 -27 -3 -9 -2 -16 4 -16 8 0 27 -73 23 -92
0 -5 4 -8 10 -8 5 0 7 -5 4 -11 -4 -5 -3 -22 3 -37 5 -15 15 -47 22 -72 7 -25
15 -52 18 -60 3 -8 6 -22 7 -30 1 -8 12 -49 25 -90 13 -41 24 -82 25 -90 2
-14 5 -22 26 -81 6 -14 11 -35 12 -47 1 -12 5 -22 9 -22 4 0 8 -9 8 -21 0 -11
5 -29 10 -39 6 -10 11 -30 12 -44 1 -15 5 -26 8 -26 4 0 12 -24 19 -52 8 -29
17 -58 22 -64 5 -6 10 -19 12 -30 8 -42 20 -80 30 -91 5 -7 6 -13 2 -13 -4 0
-2 -7 5 -15 7 -8 9 -15 5 -15 -4 0 2 -16 14 -36 12 -19 16 -32 10 -28 -8 4 -8
1 0 -14 6 -12 39 -97 72 -189 34 -92 66 -174 71 -181 6 -6 7 -12 4 -12 -4 0
-1 -10 6 -23 7 -12 13 -24 14 -27 0 -3 4 -14 9 -25 4 -11 26 -65 48 -120 22
-55 50 -124 63 -153 13 -29 24 -56 24 -59 0 -7 49 -113 77 -165 8 -16 11 -28
7 -28 -4 0 0 -8 9 -18 10 -10 14 -22 10 -25 -3 -4 0 -7 7 -7 7 0 11 -3 7 -6
-3 -4 1 -21 10 -38 10 -17 18 -33 18 -36 1 -3 24 -50 50 -105 27 -55 48 -103
47 -107 -1 -5 2 -8 6 -8 4 0 14 -17 21 -37 8 -21 20 -46 29 -55 8 -10 12 -18
8 -18 -4 0 2 -14 14 -30 12 -17 18 -30 15 -30 -3 0 3 -14 15 -30 12 -17 18
-30 13 -30 -4 0 -3 -4 2 -8 6 -4 26 -38 45 -77 19 -38 38 -71 42 -73 4 -2 8
-12 8 -22 0 -10 3 -20 8 -22 4 -1 16 -21 28 -43 60 -114 108 -201 116 -212 5
-7 17 -27 27 -45 10 -18 27 -50 39 -70 12 -21 30 -53 41 -70 10 -18 41 -70 70
-116 28 -46 51 -86 51 -88 0 -3 5 -10 10 -17 6 -7 39 -57 72 -112 34 -55 66
-101 70 -103 4 -2 8 -8 8 -13 0 -11 42 -72 53 -77 4 -2 7 -8 7 -13 0 -11 142
-223 153 -227 4 -2 7 -8 7 -13 0 -6 5 -15 11 -22 5 -7 48 -66 95 -132 47 -66
94 -131 105 -145 11 -14 28 -37 37 -53 9 -15 20 -27 24 -27 4 0 8 -7 8 -15 0
-8 4 -15 8 -15 4 0 21 -20 36 -45 16 -25 32 -45 35 -45 3 0 20 -20 36 -45 17
-24 33 -45 38 -45 4 0 7 -4 7 -10 0 -5 8 -18 18 -28 9 -10 28 -33 42 -51 14
-18 30 -38 35 -44 6 -7 28 -35 49 -62 22 -28 47 -58 55 -67 9 -9 21 -23 26
-30 30 -40 119 -145 172 -205 21 -23 49 -55 63 -70 63 -72 158 -179 190 -214
19 -20 78 -83 130 -138 52 -56 96 -106 98 -111 2 -6 10 -10 18 -10 8 0 14 -4
14 -9 0 -13 371 -378 519 -510 39 -35 87 -78 105 -95 18 -17 59 -53 90 -81 32
-27 68 -59 80 -70 12 -11 46 -40 76 -65 29 -25 59 -51 66 -57 7 -7 15 -13 18
-13 3 0 16 -10 29 -22 37 -36 89 -78 94 -78 3 0 13 -8 22 -18 9 -10 45 -40 81
-67 36 -28 67 -52 70 -55 3 -3 34 -28 70 -55 36 -28 67 -52 70 -55 8 -8 136
-104 160 -120 13 -8 34 -25 48 -38 14 -12 28 -22 32 -22 4 0 20 -11 36 -25 16
-14 32 -25 36 -25 4 0 13 -6 20 -13 7 -7 44 -35 83 -61 38 -26 73 -53 77 -59
4 -7 8 -7 8 -2 0 7 3 7 8 0 4 -6 27 -24 52 -40 25 -17 50 -34 55 -38 18 -14
230 -151 289 -187 32 -19 63 -40 69 -45 21 -18 67 -46 67 -40 0 3 10 -3 22
-15 12 -11 28 -20 35 -20 7 0 13 -4 13 -10 0 -5 4 -10 9 -10 5 0 46 -22 90
-50 45 -27 81 -46 81 -42 0 4 5 -1 11 -10 5 -10 14 -18 19 -18 5 0 47 -23 95
-50 48 -28 91 -50 96 -50 5 0 9 -3 9 -8 0 -4 17 -15 38 -24 20 -10 66 -34 102
-54 115 -65 373 -197 490 -253 19 -9 37 -19 38 -24 2 -4 8 -5 13 -1 5 3 9 1 9
-4 0 -5 14 -12 31 -16 16 -3 37 -13 45 -21 9 -8 24 -15 33 -15 10 0 24 -7 31
-15 7 -8 16 -12 21 -9 5 3 9 0 9 -7 0 -7 3 -10 6 -6 4 3 37 -9 75 -28 38 -19
75 -35 83 -35 8 0 16 -5 18 -10 2 -6 13 -12 24 -14 12 -3 44 -16 73 -30 28
-15 51 -24 51 -21 0 2 17 -4 38 -14 35 -18 89 -42 140 -62 12 -5 32 -13 45
-18 12 -5 38 -16 59 -25 20 -9 41 -16 46 -16 6 0 23 -6 39 -14 25 -13 140 -59
153 -62 3 0 16 -5 30 -11 14 -5 54 -20 90 -33 36 -13 69 -27 74 -31 5 -4 15
-5 22 -2 8 3 14 1 14 -4 0 -5 6 -10 13 -10 16 -1 196 -62 220 -74 10 -5 22 -7
27 -4 5 3 11 1 15 -5 5 -8 64 -29 85 -30 3 0 43 -13 89 -30 46 -16 87 -27 92
-25 4 3 10 1 13 -4 3 -4 20 -12 38 -16 18 -4 38 -9 43 -11 25 -9 222 -65 240
-69 11 -3 49 -13 85 -23 36 -10 67 -19 70 -19 3 -1 12 -4 20 -6 30 -9 146 -37
172 -41 15 -3 31 -7 36 -10 5 -3 24 -8 43 -11 46 -9 64 -13 64 -15 0 -1 14 -4
30 -6 17 -3 48 -10 70 -17 22 -6 49 -11 60 -12 11 0 25 -3 30 -6 9 -6 35 -11
160 -34 11 -2 20 -4 20 -5 0 -1 11 -3 25 -6 14 -2 48 -9 75 -14 73 -15 88 -18
142 -26 26 -5 50 -9 53 -9 3 -1 25 -5 50 -9 68 -11 85 -14 85 -16 0 -1 14 -3
30 -4 17 -2 50 -7 75 -11 25 -4 55 -9 68 -10 12 -2 53 -8 90 -14 99 -15 169
-25 265 -36 26 -3 68 -8 95 -11 26 -4 63 -8 82 -9 19 -1 35 -3 35 -4 0 -2 23
-4 50 -6 69 -5 163 -14 205 -19 42 -5 217 -17 315 -22 39 -1 70 -3 70 -4 0 -1
41 -3 91 -4 49 -1 96 -6 102 -10 7 -4 12 -2 12 4 0 7 6 8 19 0 14 -7 22 -7 26
0 4 6 12 7 18 3 19 -12 71 -12 79 1 6 8 8 8 8 -2 0 -16 757 -16 778 0 8 7 12
7 12 0 0 -6 10 -9 23 -6 12 3 69 6 127 8 58 1 110 4 115 7 6 2 54 4 107 4 54
0 98 3 98 6 0 3 12 6 28 6 68 -1 148 7 159 15 7 5 14 5 18 -2 3 -6 11 -8 17
-4 5 3 35 8 66 10 95 7 157 13 157 14 0 2 40 7 114 14 36 4 79 9 95 11 33 5
102 14 151 19 47 5 118 15 140 20 11 2 43 7 70 10 28 4 64 10 80 13 17 3 42 6
58 7 15 0 27 5 27 9 0 5 3 6 8 3 4 -2 37 1 74 8 36 7 73 11 82 10 9 -1 16 1
16 5 0 4 6 8 13 8 20 1 107 15 167 28 35 8 70 14 105 21 17 2 45 9 64 14 19 5
38 7 43 4 4 -3 8 -1 8 3 0 5 12 10 28 11 15 1 63 11 107 23 44 11 95 21 113
22 17 1 32 4 32 7 0 3 28 12 63 20 81 17 72 15 147 35 58 15 83 21 115 28 6 2
15 5 20 8 12 8 87 23 98 21 4 -1 7 2 7 6 0 4 8 8 18 9 9 1 49 10 87 21 39 12
99 29 135 39 36 10 68 22 72 28 4 5 8 7 8 3 0 -4 18 -1 40 7 22 8 40 12 40 8
0 -3 6 -1 13 4 6 5 41 18 77 28 36 10 70 22 76 27 6 4 23 9 38 10 14 1 26 5
26 9 0 3 6 6 13 6 15 1 216 70 238 83 9 5 33 12 53 15 20 4 36 11 36 16 0 5 3
8 8 7 4 -2 30 6 57 16 140 52 232 88 250 96 71 32 115 48 115 43 0 -3 9 2 20
12 11 10 20 15 20 11 0 -3 14 0 30 9 17 9 30 12 30 8 0 -5 6 -1 13 8 7 9 15
16 19 15 14 -2 108 39 108 47 0 4 4 6 8 3 4 -2 44 12 88 33 43 21 96 43 117
50 20 7 37 17 37 22 0 5 6 9 14 9 8 0 80 32 160 70 80 39 150 70 156 70 5 0
10 4 10 8 0 6 40 27 70 36 3 1 23 11 45 23 22 11 80 42 130 67 49 26 95 52
102 58 7 6 13 7 13 2 0 -5 4 -4 8 1 4 6 32 23 62 39 69 36 119 64 190 105 30
18 63 35 73 38 9 3 17 9 17 14 0 5 4 9 10 9 9 0 330 188 340 199 7 9 42 30 66
40 11 5 27 15 35 23 8 8 31 22 52 32 21 9 41 24 44 32 3 8 8 12 13 9 4 -2 16
3 26 13 10 9 31 23 47 31 15 8 27 18 27 23 0 5 4 7 9 4 4 -3 16 3 26 14 10 11
22 20 27 20 5 0 16 6 23 12 25 23 40 33 68 47 15 8 27 18 27 23 0 4 5 8 11 8
6 0 28 13 49 30 21 16 43 30 49 30 6 0 11 4 11 8 0 4 15 16 33 27 17 10 36 24
40 32 4 7 15 13 22 13 8 0 15 4 15 9 0 5 8 12 19 16 10 3 33 19 50 35 17 17
31 27 31 23 0 -5 4 -3 8 2 4 6 23 21 42 35 19 13 40 28 45 32 11 9 61 47 115
88 66 50 185 144 190 150 3 3 19 16 36 28 35 24 85 65 121 99 13 12 23 19 23
15 0 -4 4 -2 8 4 4 6 37 36 74 66 37 31 64 58 61 62 -3 3 0 6 8 6 8 0 39 23
69 50 30 27 62 55 70 61 51 42 289 260 382 350 48 47 88 84 88 82 0 -2 8 5 18
15 11 9 17 20 15 25 -2 4 0 7 6 7 17 0 351 345 573 591 37 41 75 83 85 95 81
95 131 152 151 172 12 12 22 26 22 31 0 4 10 17 23 28 12 11 32 34 44 49 12
16 35 44 52 63 17 19 31 37 31 40 0 3 18 26 40 51 53 59 60 68 60 75 0 3 8 13
18 23 26 28 43 50 139 179 48 65 93 123 98 129 6 6 28 36 49 67 22 32 43 57
48 57 5 0 7 4 4 8 -3 5 5 19 17 33 12 13 45 58 72 99 27 41 54 80 60 87 5 7
16 19 23 27 6 8 12 18 12 21 0 8 44 69 53 73 4 2 7 7 7 11 0 8 98 162 109 171
4 3 15 22 26 42 10 20 23 34 28 31 6 -4 7 -1 2 6 -4 7 1 22 12 34 11 12 33 44
49 71 16 28 39 66 51 85 13 20 33 53 45 75 13 21 28 47 33 56 6 10 17 25 24
34 7 9 10 16 6 16 -3 0 3 12 14 26 12 15 21 33 21 41 0 8 4 12 8 9 4 -2 14 10
21 27 8 18 27 55 44 82 16 28 43 75 60 105 16 30 47 89 70 130 22 41 55 103
72 138 17 34 35 59 40 55 4 -5 5 -2 1 5 -5 7 -2 21 6 30 8 9 21 33 28 52 8 19
16 37 19 40 3 3 24 43 46 90 22 47 44 88 48 91 5 3 8 9 8 13 -1 3 5 19 13 35
9 16 12 31 9 35 -4 3 -1 6 5 6 7 0 11 3 10 8 0 4 17 45 39 92 57 119 93 200
91 203 -1 1 7 20 19 42 35 69 57 120 54 129 -1 5 2 12 6 15 5 3 19 33 32 66
14 33 31 76 40 95 8 19 16 38 17 43 1 4 3 9 4 12 1 3 3 8 5 13 3 10 15 41 36
87 10 23 21 53 24 68 4 15 11 27 16 27 4 0 6 9 4 20 -2 11 1 20 7 20 6 0 8 3
5 7 -4 3 0 17 8 30 9 13 13 23 10 23 -3 0 1 13 10 29 8 17 17 38 18 48 2 10 9
29 14 43 6 14 19 50 29 80 11 30 23 58 27 61 5 3 8 9 7 13 -2 10 12 69 21 86
10 19 49 137 49 149 0 6 4 20 9 33 5 13 9 26 10 30 1 4 10 27 20 50 10 24 17
51 15 60 -1 10 2 20 7 24 5 3 9 11 9 19 0 8 5 26 12 42 12 29 13 33 22 73 3
14 17 63 31 110 14 47 27 94 30 105 2 11 13 52 25 92 11 39 20 75 19 80 -1 4
3 22 10 38 7 17 14 39 16 50 7 38 11 50 19 64 6 9 5 12 -2 7 -6 -4 -5 5 3 21
7 16 16 45 19 66 4 21 11 48 17 59 8 16 8 19 -1 13 -9 -6 -9 -3 -2 11 5 11 15
46 22 79 7 33 16 65 21 71 5 6 6 13 3 16 -3 3 -1 23 5 44 9 35 16 71 26 129 2
11 6 31 9 45 4 14 9 39 11 55 3 17 8 37 10 45 2 8 7 35 10 60 4 24 9 48 12 53
2 4 6 25 8 45 4 38 11 79 22 122 3 14 7 41 8 60 2 19 4 35 5 35 1 0 3 14 5 30
3 17 6 41 9 55 2 14 7 47 10 74 4 27 8 59 11 70 5 24 15 100 21 166 7 63 11
99 19 145 9 58 14 109 19 203 3 45 7 86 10 91 3 5 6 20 5 32 0 13 2 51 6 84 4
33 7 78 8 100 2 22 6 46 10 53 5 6 4 12 -1 12 -5 0 -9 7 -9 15 0 8 3 15 6 15
3 0 7 28 8 63 4 164 12 297 18 306 3 6 1 11 -5 11 -7 0 -8 6 0 19 7 14 7 22 0
26 -6 4 -7 12 -3 18 11 15 10 38 -1 56 -6 10 -5 12 2 7 9 -5 11 95 11 379 -1
266 -4 383 -12 378 -6 -4 -7 -1 -2 8 12 19 14 49 3 55 -4 3 -3 14 2 25 8 14 7
19 -1 19 -8 0 -8 4 1 15 7 8 9 15 4 15 -5 0 -10 35 -11 78 -2 95 -12 307 -14
307 -2 0 -7 70 -10 125 -1 25 -3 48 -6 53 -2 4 -6 42 -8 85 -3 42 -7 93 -9
112 -3 19 -7 62 -11 94 -3 33 -8 63 -11 68 -3 4 0 8 6 8 6 0 8 5 3 13 -9 15
-12 30 -18 92 -2 28 -7 66 -10 85 -3 19 -8 51 -10 70 -2 19 -6 51 -10 70 -3
19 -8 60 -11 90 -4 30 -9 57 -13 60 -3 3 -7 21 -7 40 -2 37 -11 115 -15 115
-1 0 -3 9 -4 20 -7 46 -15 92 -21 120 -3 17 -7 45 -8 63 0 17 -5 32 -9 32 -5
0 -7 6 -4 13 2 6 1 22 -4 34 -4 11 -10 41 -13 65 -6 45 -13 81 -16 86 -3 3 -5
10 -20 92 -8 41 -14 77 -15 80 -8 27 -16 59 -20 80 -3 14 -9 43 -14 65 -11 48
-17 73 -32 140 -6 28 -13 57 -16 65 -3 8 -7 21 -9 28 -8 38 -27 119 -32 132
-5 14 -11 39 -16 67 -1 7 -5 16 -9 19 -4 4 -7 19 -7 34 0 14 -5 31 -12 38 -7
7 -9 12 -5 12 3 0 0 18 -8 40 -8 22 -12 40 -10 40 2 0 -5 24 -15 52 -10 29
-16 56 -14 60 3 5 0 8 -6 8 -7 0 -10 6 -7 13 2 6 -2 27 -10 45 -7 17 -11 32
-8 32 3 0 -1 13 -10 30 -8 16 -15 31 -13 32 1 2 -14 50 -32 108 -18 58 -35
110 -36 115 -1 6 -14 44 -29 85 -14 41 -28 80 -29 87 -1 7 -5 16 -9 19 -4 4
-7 16 -7 26 0 10 -4 27 -10 38 -5 11 -14 29 -20 40 -5 11 -10 26 -10 34 0 8
-9 36 -21 63 -11 26 -23 55 -25 63 -12 46 -30 90 -37 90 -5 0 -6 4 -2 10 3 5
1 17 -5 27 -9 16 -32 71 -34 83 -1 3 -4 10 -7 15 -4 6 -9 22 -13 38 -3 15 -11
27 -17 27 -6 0 -7 5 -4 10 3 6 3 16 -2 23 -4 6 -8 14 -9 17 0 3 -8 21 -16 40
-15 35 -30 71 -33 80 -4 11 -27 66 -40 95 -7 16 -28 64 -45 105 -18 41 -43 99
-56 128 -13 28 -36 78 -50 110 -15 31 -66 139 -115 240 -49 100 -89 186 -90
190 -1 4 -10 19 -21 35 -11 15 -16 27 -12 27 3 0 1 7 -6 16 -8 8 -32 52 -55
97 -23 45 -51 98 -62 117 -19 34 -72 131 -109 200 -11 19 -21 37 -24 40 -3 3
-13 21 -23 40 -35 65 -52 95 -58 100 -3 3 -17 25 -31 50 -28 52 -73 128 -105
176 -12 19 -19 34 -15 34 4 0 2 4 -3 8 -13 9 -42 54 -43 66 0 5 -4 12 -9 15
-5 3 -32 42 -60 86 -29 44 -57 85 -62 92 -6 7 -11 17 -11 24 0 6 -8 19 -18 28
-10 9 -22 23 -25 31 -17 36 -167 254 -179 258 -4 2 -8 8 -8 12 0 11 -108 163
-122 171 -5 3 -9 9 -9 13 2 8 -51 80 -61 84 -5 2 -8 9 -8 16 0 6 -9 18 -20 26
-11 8 -20 20 -20 27 0 7 -4 13 -8 13 -4 0 -16 13 -25 30 -10 16 -23 35 -30 42
-7 7 -25 31 -41 53 -16 22 -35 47 -43 55 -7 8 -34 42 -60 75 -26 33 -50 62
-53 65 -3 3 -18 23 -35 45 -16 22 -39 49 -50 61 -11 11 -31 35 -45 54 -14 18
-33 42 -43 54 -11 11 -35 41 -55 65 -21 24 -46 53 -57 66 -11 12 -47 53 -80
90 -98 112 -238 265 -322 353 -29 30 -53 59 -53 63 0 5 -7 9 -15 9 -8 0 -15 4
-15 8 0 17 -501 505 -656 639 -68 58 -173 152 -196 175 -16 14 -28 24 -28 22
0 -3 -6 1 -13 8 -34 33 -304 256 -386 318 -18 14 -38 30 -44 35 -7 6 -41 32
-77 60 -36 27 -69 53 -75 57 -46 37 -90 68 -133 98 -28 19 -48 38 -45 44 3 5
2 6 -4 3 -5 -4 -19 1 -30 11 -10 9 -26 22 -35 27 -9 6 -56 38 -104 72 -49 35
-97 68 -107 75 -11 7 -27 20 -37 29 -10 8 -35 24 -54 34 -20 11 -36 23 -36 27
0 5 -4 8 -10 8 -5 0 -32 16 -59 35 -26 19 -53 35 -60 35 -6 0 -11 5 -11 10 0
6 -6 10 -14 10 -8 0 -16 4 -18 8 -4 10 -222 149 -273 175 -19 9 -35 22 -35 27
0 6 -6 10 -14 10 -7 0 -29 11 -49 24 -19 13 -38 22 -41 18 -3 -3 -6 -1 -6 4 0
5 -17 18 -37 29 -21 11 -41 24 -44 28 -3 5 -10 9 -15 9 -15 0 -64 32 -64 41 0
4 -4 6 -9 2 -5 -3 -16 2 -24 10 -9 8 -18 15 -21 15 -3 0 -48 23 -98 52 -101
56 -196 107 -298 159 -36 19 -67 37 -70 41 -3 3 -17 9 -32 13 -15 4 -32 13
-39 21 -6 8 -19 14 -29 14 -10 0 -23 7 -30 15 -7 8 -16 12 -21 9 -5 -3 -9 0
-9 7 0 7 -3 9 -6 6 -4 -4 -19 2 -34 13 -15 11 -30 17 -34 13 -3 -3 -6 -1 -6 5
0 7 -6 12 -14 12 -16 0 -79 31 -84 42 -2 4 -10 4 -18 1 -8 -3 -14 0 -14 6 0 6
-4 11 -9 11 -5 0 -51 20 -103 43 -51 24 -131 61 -178 81 -47 21 -110 49 -140
63 -30 14 -59 26 -65 27 -5 1 -20 7 -32 14 -12 7 -29 12 -37 12 -9 0 -16 4
-16 8 0 5 -6 9 -14 9 -7 0 -36 10 -62 23 -27 12 -53 23 -59 24 -5 2 -28 10
-50 20 -22 10 -44 19 -50 20 -5 1 -14 4 -20 8 -5 3 -29 11 -52 17 -24 7 -43
16 -43 21 0 6 -11 10 -24 10 -14 0 -28 5 -31 10 -4 6 -11 8 -16 5 -5 -4 -9 -1
-9 5 0 6 -5 8 -10 5 -6 -4 -16 -3 -23 2 -7 5 -43 20 -82 33 -38 12 -76 27 -82
33 -7 5 -13 7 -13 3 0 -4 -13 0 -29 8 -16 9 -31 12 -35 9 -3 -4 -6 -1 -6 5 0
6 -6 9 -14 6 -8 -3 -17 -1 -21 5 -3 6 -12 11 -20 11 -8 0 -26 5 -42 12 -15 6
-32 10 -37 9 -4 -1 -13 2 -20 7 -6 5 -33 15 -61 22 -27 7 -54 16 -60 19 -5 3
-14 6 -20 7 -5 1 -46 14 -89 28 -44 14 -83 23 -88 20 -4 -3 -8 0 -8 5 0 6 -10
11 -23 11 -13 0 -28 5 -35 12 -7 7 -12 9 -12 5 0 -3 -19 1 -42 9 -24 9 -54 18
-68 20 -14 3 -32 7 -40 11 -8 3 -22 7 -30 9 -8 1 -33 8 -55 14 -22 6 -47 12
-55 14 -9 1 -21 5 -28 10 -6 4 -16 4 -22 1 -5 -3 -10 -2 -10 4 0 5 -8 10 -17
10 -10 0 -43 6 -73 15 -86 23 -217 55 -252 61 -17 3 -40 11 -51 16 -15 9 -18
8 -12 -3 6 -10 5 -11 -6 0 -7 6 -23 12 -34 12 -12 0 -25 3 -28 7 -4 3 -17 8
-30 9 -45 6 -82 12 -82 14 0 1 -7 3 -15 5 -8 1 -40 8 -70 14 -30 6 -66 13 -80
16 -14 3 -38 8 -55 11 -16 4 -40 8 -52 10 -12 1 -36 5 -53 9 -32 7 -64 13
-110 20 -14 2 -51 9 -83 15 -31 6 -72 13 -90 15 -17 2 -45 7 -62 10 -16 4 -49
8 -71 9 -23 2 -45 6 -50 9 -5 3 -27 6 -49 8 -22 1 -44 5 -49 7 -5 3 -32 6 -60
8 -57 4 -109 12 -133 21 -12 5 -14 3 -8 -8 7 -11 6 -12 -6 -2 -8 6 -32 12 -54
14 -22 1 -44 5 -49 7 -5 3 -31 5 -58 5 -26 1 -48 3 -48 6 0 3 -22 6 -50 6 -27
-1 -50 3 -50 7 0 5 -9 4 -20 -2 -11 -6 -20 -7 -20 -3 0 5 -32 10 -72 12 -40 1
-76 5 -81 8 -4 2 -54 7 -110 10 -157 7 -232 11 -232 13 0 9 -1158 24 -1167 15z"/>
</g>
</svg>
